<?xml version="1.0" encoding="iso-8859-1"?>
<!-- Generator: Adobe Illustrator 21.0.0, SVG Export Plug-In . SVG Version: 6.00 Build 0)  -->
<svg xmlns="http://www.w3.org/2000/svg" xmlns:xlink="http://www.w3.org/1999/xlink" version="1.1" id="Capa_1" x="0px" y="0px" viewBox="0 0 512 512" style="enable-background:new 0 0 512 512;" xml:space="preserve" width="512" height="512">
<g>
	<g>
		<g>
			<g>
				<g>
					<g>
						<g>
							<g>
								<g>
									<circle style="fill:#65B1FC;" cx="256" cy="256" r="256"/>
								</g>
							</g>
						</g>
					</g>
				</g>
			</g>
		</g>
	</g>
	<path style="fill:#5C8EFF;" d="M507.813,302.299L461.515,256l-124.475-1.952l-35.225-35.225l-54.67,65.97l-78.786-78.786   l-64.203,32.077l30.258,101.849l167.881,167.881C406.561,488.768,488.765,406.565,507.813,302.299z"/>
	<path style="fill:#555A66;" d="M377.583,172.071l-33.94,33.941L369.631,232h-59.733c-9.196-20.621-29.862-35.002-53.898-35.002   c-24.037,0-44.702,14.382-53.898,35.002h-59.735l25.992-25.993l-33.941-33.94L50.486,256l83.927,83.933l33.942-33.939L142.365,280   h59.737c9.197,20.621,29.862,35.002,53.898,35.002s44.702-14.382,53.898-35.002h59.734l-25.988,25.988l33.941,33.941L461.515,256   L377.583,172.071z"/>
	<path style="fill:#333940;" d="M377.583,172.071l-33.94,33.941L369.631,232h-59.733c-9.196-20.621-29.862-35.002-53.898-35.002   c-0.032,0-0.063,0.002-0.095,0.002V315c0.032,0,0.063,0.002,0.095,0.002c24.037,0,44.702-14.382,53.898-35.002h59.734   l-25.988,25.988l33.941,33.941L461.515,256L377.583,172.071z"/>
</g>















</svg>
